<?xml version="1.0" encoding="UTF-8"?><svg id="Livello_2" xmlns="http://www.w3.org/2000/svg" viewBox="0 0 25.68 25.68"><defs><style>.cls-1{fill:#e0c4df;}.cls-2{fill:#621a52;stroke:#ef8ab2;stroke-miterlimit:10;stroke-width:2px;}</style></defs><g id="Livello_1-2"><circle class="cls-2" cx="12.84" cy="12.84" r="11.84"/><path class="cls-1" d="m21.09,9.73c.05.05.06.13.04.19-.05.15-.15.45-.22.67-.05.14-.19.23-.34.2-.24-.04-.56-.11-.64-.13-.33-.09-.45-.02-.31.23,0,0,.49.74.55.87.21.43.24,1.02-.24,1.58-.12.15-2.33,2.76-2.27,3.59.4,0,.7.07.82.31.04.08.06.17.06.28h-1.27c-.26,0-.46-.23-.43-.49l.2-1.65c.03-.24-.09-.46-.3-.58-1.73-.94-4.07-.69-5.1-.52-.28.05-.5.26-.54.53-.08.46-.35,1.17-1.12,1.65l.67.47c.61,0,.95.05.95.59h-1.27c-.1,0-.19-.03-.27-.09l-.91-.71c-.12-.1-.2-.25-.2-.41v-.94c-.49.37-1.23.71-2.79.8-.15,0-.29.1-.35.25l-.21.51c.2-.02.4.03.56.15.15.11.24.27.25.44h-1.15c-.26,0-.47-.23-.43-.5l.19-1.29c.03-.21.2-.36.41-.37,2.16-.06,2.65-2.39,2.65-2.39,0,0-.24-.26-.37-.31-.36-.15-.71-.22-1.06-.22-.41.01-.81.14-1.2.39,0,0,0,.02,0,.02-.25.5-.6.48-.92.43.03-.48.45-.73.72-.64.44-.29.9-.44,1.38-.45.39-.01.8.07,1.2.25.17.07.32.15.45.23.32-.3,1.93-.52,3.08-.63.37-.04.48-.52.16-.71l-4.19-2.51c-.31-.18-.19-.65.17-.66l6.11-.09c.86,0,1.27.54.84,1.44l-.3.51c-.34.57-.07,1.31.55,1.53h0c.63.22,1.3-.18,1.4-.84l.03-.2c.05-.31.12-.61.22-.9.06-.17.12-.32.18-.44.42-.88,1.17-1.14,1.21-1.17.72-.34,1.39-.23,1.66.13.02.03.05.08.08.15.12.24.3.45.52.6.37.25.9.62,1.09.83Z"/></g></svg>